# xmcd
#
# Track frame offsets:
#	150
#	20107
#	40322
#	58251
#	86823
#	103942
#	125000
#	156866
#	168747
#	186174
#
# Disc length: 2878 seconds
#
# Revision: 1
# Processed by: cddbd v1.5.1PL0 Copyright (c) Steve Scherf et al.
# Submitted via: audiograbber 1.83.01
#
DISCID=940b3c0a
DTITLE=varius - Jesus  A COLLECTION of MODERN WORSHIP
DYEAR=2004
DGENRE=Christian Gangsta Rap
TTITLE0=it`s all about Jesus 
TTITLE1=all to thee 
TTITLE2=one pure and holy passion  
TTITLE3=king of glory
TTITLE4=wisper to me 
TTITLE5=shout to the lord 
TTITLE6=the wonderful cross 
TTITLE7=all who are thirsty 
TTITLE8=in the garden - there is none like you
TTITLE9=here i am to worship - call 
EXTD=REFLECTING the PERSON  and PRESENCE of CHRIST\n\nWARREN BARFIELD, BDA, HIL
EXTD=LSONGS, PLANETSHAKERS,\nTHIRD DAY, CHRIS TOMLIN, WATERMARK, JENN WEBER,\nZ
EXTD=OEGROUP, DARLENE ZSCHECH\n\nerhältlich unter www.gerth.de
EXTT0=
EXTT1=
EXTT2=
EXTT3=
EXTT4=
EXTT5=
EXTT6=
EXTT7=
EXTT8=
EXTT9=
PLAYORDER=
